<svg xmlns="http://www.w3.org/2000/svg" width="190" height="66" viewBox="0 0 190 66" fill="none">
    <path d="M58.4575 42.7725L60.2584 37.4552C60.415 36.9704 60.5403 36.47 60.6186 35.9695C60.9944 33.6706 60.4463 31.3248 59.0526 29.3699C57.8155 27.6496 56.0773 26.4611 54.0885 25.9293C53.3368 25.7417 52.5695 25.6322 51.7709 25.6322C51.489 25.6322 51.2071 25.6479 50.9409 25.6635C47.4801 25.9763 44.4891 28.2908 43.3303 31.6063C43.3146 31.6376 43.3146 31.6688 43.299 31.7001L43.2207 31.9034C43.6278 32.3257 44.2855 32.8105 45.1781 33.0763H45.1938C45.4443 33.1545 45.7106 33.2015 45.9924 33.2327L46.1804 32.6854C46.9633 30.3708 49.0774 28.7913 51.489 28.6818C51.5829 28.6818 51.6769 28.6662 51.7709 28.6662C52.82 28.6662 53.8223 28.932 54.6992 29.4325C55.4196 29.8391 56.0616 30.4177 56.5784 31.1215C57.4866 32.3882 57.8468 33.8896 57.6276 35.3753C57.5806 35.735 57.4866 36.0947 57.377 36.4387L57.2361 36.861L53.7127 36.2041C54.3704 34.6715 54.7305 33.0294 54.7775 31.3717C53.9789 30.6054 52.9297 30.1988 51.7865 30.1988H51.7082C51.8335 32.0755 51.4577 33.9521 50.612 35.6411L44.6614 34.4057C43.3146 34.1241 42.1088 33.3735 41.2632 32.2944C39.2588 29.7453 36.3617 28.0406 33.1515 27.5245L33.1045 27.5089H24.0376L23.9906 26.8833C23.8966 25.6166 23.5052 24.3655 22.8005 23.302C22.5186 22.8798 22.1897 22.4888 21.8296 22.1291C21.4537 21.7538 21.0309 21.441 20.6081 21.0969L20.6864 20.9874L21.3911 21.3784C23.3016 22.4419 24.711 24.2247 25.3217 26.3203H28.1091C27.9838 25.5853 27.7176 24.8033 27.3574 24.0683C26.9973 23.3333 26.5275 22.6608 25.9794 22.1291C25.6192 21.7538 25.1807 21.441 24.7579 21.0969L24.8362 20.9874C26.8876 21.9258 28.8764 24.2403 29.5028 26.336H33.1045C32.8227 25.3976 32.3842 24.5062 31.8048 23.7243C31.2097 22.8954 30.458 22.176 29.5811 21.5974L29.08 21.2689C28.5632 20.9249 28.1248 20.5026 27.7489 20.0178C26.7154 18.8449 26.2613 17.672 26.0733 16.7337C25.8698 15.7015 25.9794 14.9352 26.0107 14.7788C26.0107 14.7632 26.0264 14.7475 26.0264 14.7475C26.0264 15.2949 26.1986 15.7953 26.4962 16.2019C26.5744 16.3114 26.6527 16.4052 26.731 16.4991C27.1852 16.937 27.7959 17.2185 28.4693 17.2185H32.7913C32.7913 15.4513 32.071 13.8561 30.9278 12.7145C29.769 11.5572 28.1717 10.8378 26.4179 10.8378H26.1673L28.9704 4.42582C29.0017 4.3789 29.0174 4.34762 29.0487 4.30071C29.3619 3.76898 29.8786 3.37801 30.5207 3.1747C30.7712 3.09651 31.0375 3.04959 31.3193 3.04959C32.0397 3.04959 32.76 3.31545 33.2924 3.78462L33.3081 3.80026L39.8225 9.97764C40.0574 10.1809 40.3706 10.2904 40.6838 10.2904C40.8717 10.2904 41.0596 10.2435 41.2319 10.1809L34.6548 1.84539C33.7153 0.813225 32.3842 0.156389 30.9748 0.0312779C30.7712 0.0156389 30.5833 0 30.3954 0C29.0487 0 27.6706 0.484807 26.6214 1.32931C26.611 1.33974 26.6006 1.35016 26.5901 1.36059C26.4335 1.21984 26.2613 1.09473 26.1047 0.985253C25.3217 0.453529 24.3978 0.125111 23.4269 0.0312779C23.2233 0.0156389 23.0354 0 22.8475 0C21.5007 0 20.1227 0.484807 19.0735 1.32931C18.9952 1.39187 18.9169 1.45442 18.8229 1.53262C18.4471 1.87667 18.1026 2.25201 17.805 2.6899C17.5858 3.00268 17.257 3.61259 17.0221 4.05048L14.219 9.58667H17.8677C18.6037 9.58667 19.2614 9.14878 19.5589 8.49194L21.3441 4.44146V4.42582C21.6573 3.8159 22.1897 3.39365 22.8944 3.1747C23.145 3.09651 23.4112 3.04959 23.6931 3.04959C23.8966 3.04959 24.1159 3.08087 24.3195 3.11215C24.523 3.14343 24.7892 3.23726 24.9928 3.29981L22.7378 7.70999C21.9235 9.3208 20.3889 10.4312 18.6507 10.7439C18.3218 10.8065 17.993 10.8378 17.6484 10.8378H14.1407C12.6843 10.8378 11.2906 11.3695 10.1318 12.2609C9.61503 12.6519 9.05129 12.9647 8.44056 13.1993C7.82983 13.4338 7.18779 13.5746 6.51442 13.6215L4.90147 13.731C4.21245 13.7779 3.55474 14.0125 3.02232 14.4191C2.78742 14.5755 2.6778 14.8257 2.6778 15.0603C2.6778 15.4669 2.97534 15.8579 3.47645 15.8579H4.36905L2.95968 16.546C2.03576 16.9839 1.72256 17.9848 2.20801 18.97C2.63082 19.7989 3.46079 20.2837 4.33773 20.2837C4.6196 20.2837 4.90147 20.2368 5.18335 20.1273L8.06473 19.0326C9.25486 18.5791 10.539 19.3923 10.6329 20.659C10.6329 20.7059 10.6486 20.7685 10.6486 20.8154C10.6486 21.9571 9.61503 22.8641 8.45622 22.6765L3.75832 21.9571L3.83662 23.1143C3.8836 23.6773 4.05585 24.2091 4.40037 24.6313C4.74488 25.0536 5.21467 25.3507 5.77842 25.4758L8.12737 26.0075L7.36004 26.508C5.7471 27.5714 4.57262 29.1822 4.04019 31.0276C3.77398 31.9503 3.35117 32.8105 2.80308 33.5611C2.23933 34.3275 1.55031 34.9843 0.751664 35.516L0 36.0165H3.33551L3.6487 35.8444C5.32429 34.9687 6.59272 33.5455 7.2974 31.7627C8.19 29.3543 10.1005 27.5245 12.3868 26.4767L12.4651 26.6018C10.6016 27.9311 9.09827 29.886 8.72243 32.1693C8.45622 33.5299 7.86115 34.8748 7.01553 36.0165H9.94389L10.2571 35.8444C11.917 34.9687 13.2011 33.5455 13.9058 31.7627C14.7984 29.3543 16.7089 27.5245 18.9952 26.4767L19.0735 26.6018C17.21 27.9311 15.7066 29.886 15.3308 32.1693V32.1849C15.1742 33.0294 14.8454 33.827 14.4382 34.562C14.266 34.8748 14.1094 35.1876 13.9841 35.516C13.9214 35.6724 13.8588 35.8288 13.7962 35.9695C13.3577 37.1737 13.1228 38.4405 13.1228 39.6916C13.1228 42.8507 14.5165 45.9941 17.2413 48.1366C19.465 49.8726 20.3732 52.8283 19.5119 55.5026L16.3957 65.1362H23.7557L24.4447 62.5557H24.2255C23.7244 62.5557 23.2703 62.3524 22.9414 62.024C22.6282 61.7112 22.4246 61.2733 22.409 60.7885C22.3777 59.7564 23.2703 58.9119 24.3038 58.9119H25.7288C27.3418 58.9119 28.7042 57.6764 28.8451 56.0656L29.5341 48.5432C24.4447 45.7439 22.5812 39.676 22.0331 37.2519L21.8296 36.2198L23.9123 40.7081C26.136 45.478 30.8182 48.1679 35.6257 48.1679C38.2722 48.1679 40.9657 47.3547 43.299 45.6188C45.5226 43.9767 48.6076 45.869 48.1535 48.5902L47.6054 51.7961L50.2362 53.7041C52.084 55.0334 52.8983 57.3636 52.2876 59.5531L50.706 65.1831H57.9877L61.4955 52.4686C58.5202 50.1541 57.2987 46.2912 58.4575 42.7725ZM14.0311 15.5295C13.3264 15.7015 11.228 16.327 11.087 16.374L12.011 15.5607C12.011 15.5607 11.1967 14.5286 11.8074 14.3409C12.4181 14.1532 15.8006 15.248 15.8006 15.248C15.8006 15.248 14.814 15.3262 14.0311 15.5295Z" fill="white"/>
    <path d="M15.7385 54.0161L15.0182 54.8136C14.7207 55.1421 14.3135 55.2984 13.922 55.2984C13.4522 55.2984 12.9824 55.0795 12.6849 54.6416C12.2934 54.0786 12.3561 53.3123 12.8102 52.8119L14.5954 50.857C15.4253 49.9499 15.4723 48.5581 14.6737 47.6197C12.9198 45.5867 11.8863 43.0062 11.761 40.2694C11.6827 38.815 11.8863 37.3606 12.3091 36L6.62461 41.4267C3.93115 43.9915 3.49268 48.1202 5.57542 51.201L12.9355 62.0701L17.743 56.8311L15.7385 54.0161Z" fill="white"/>
    <path d="M53.1008 19.7512C51.6601 20.7834 50.8615 22.4411 50.7988 24.1614C51.0964 24.1301 51.4252 24.1145 51.7697 24.1145C52.4431 24.1145 53.1321 24.1771 53.7742 24.3022L53.6332 23.5671C53.461 22.6132 53.7742 21.6123 54.5258 21.018C55.4654 20.2673 56.7495 20.2517 57.6891 20.9554C57.4072 21.4246 57.2663 21.9407 57.2663 22.4411C57.2663 23.8017 58.2528 25.0841 59.7405 25.3031C59.9441 25.3343 60.1633 25.35 60.3669 25.35C61.6353 25.35 62.8411 24.8026 63.6867 23.8486L64.2818 23.1762L59.7405 19.7982C57.7987 18.3437 55.1209 18.2968 53.1008 19.7512Z" fill="white"/>
    <path d="M46.6353 48.277C46.7293 47.6827 46.51 47.2761 46.3064 47.0415C46.0089 46.6818 45.5548 46.4785 45.1007 46.4785C44.7875 46.4785 44.4899 46.5723 44.208 46.7757C44.1924 46.7757 44.1924 46.7913 44.1924 46.7913C43.9262 46.979 43.66 47.1666 43.3937 47.3387C43.2685 47.4169 43.1432 47.495 43.0023 47.5732C42.9866 47.5889 42.9709 47.6045 42.9396 47.6045C42.83 47.6827 42.7047 47.7453 42.5951 47.8078C42.1566 48.058 41.7182 48.277 41.264 48.4647C41.1231 48.5272 40.9822 48.5898 40.8256 48.6367C40.669 48.6992 40.528 48.7462 40.3714 48.8087C40.2305 48.8713 40.0739 48.9182 39.9173 48.9651C39.6981 49.0433 39.4632 49.1059 39.2283 49.1684C38.5393 49.3561 37.8346 49.4812 37.1299 49.5594L38.0538 51.3266C39.3066 53.735 39.6041 56.5343 38.8681 59.146L37.1925 65.1201H44.5056L47.6532 53.6568L45.9463 52.4213L46.6353 48.277Z" fill="white"/>
    <path d="M29.3926 7.06802L32.7437 10.2427C33.01 10.4617 33.3545 10.5868 33.699 10.5868C33.9182 10.5868 34.1218 10.5399 34.3097 10.4617L30.1912 5.25391L29.3926 7.06802Z" fill="white"/>
    <path d="M74.3519 12.4805H71.9717V27.1967H74.3519V12.4805Z" fill="white"/>
    <path d="M78.4866 26.695C79.2696 27.1798 80.2561 27.4144 81.4619 27.4144C82.4641 27.4144 83.3254 27.258 84.0458 26.9453C84.7661 26.6325 85.3455 26.2102 85.7527 25.6629C86.1598 25.1155 86.3634 24.4743 86.3634 23.7236V23.5203H84.0144V23.6924C84.0144 24.1772 83.8265 24.5681 83.435 24.8496C83.0592 25.1468 82.4015 25.2875 81.4776 25.2875C80.6946 25.2875 80.0682 25.1624 79.5984 24.9122C79.1286 24.662 78.8154 24.2866 78.6432 23.7862C78.5022 23.3639 78.4083 22.8635 78.3926 22.2849H86.3477C86.3791 22.1128 86.3947 21.8939 86.426 21.6124C86.4417 21.3465 86.4573 21.065 86.4573 20.7835C86.4573 19.767 86.2381 18.9225 85.8153 18.2187C85.3925 17.515 84.7974 16.9833 84.0614 16.6079C83.3098 16.2326 82.4485 16.0449 81.4619 16.0449C80.3814 16.0449 79.4418 16.2795 78.6432 16.7643C77.8602 17.2335 77.2338 17.906 76.811 18.7505C76.3725 19.595 76.1689 20.5958 76.1689 21.7219C76.1689 22.8479 76.3569 23.8331 76.7484 24.6932C77.1242 25.5378 77.7036 26.2102 78.4866 26.695ZM79.0033 18.9225C79.4262 18.3438 80.2248 18.0467 81.3836 18.0467C82.0257 18.0467 82.5737 18.1562 83.0122 18.3595C83.4507 18.5628 83.7639 18.8756 83.9675 19.2978C84.1397 19.6732 84.218 20.1423 84.171 20.7053H78.4083C78.4709 19.9703 78.6745 19.376 79.0033 18.9225Z" fill="white"/>
    <path d="M89.6518 22.0033C90.1216 22.2379 90.6853 22.4256 91.343 22.5351L93.0656 22.8635C93.8799 23.0042 94.428 23.1606 94.7255 23.3327C95.0231 23.5047 95.1797 23.8175 95.1797 24.271C95.1797 24.5525 95.1327 24.7714 95.0231 24.9435C94.9134 25.1155 94.7255 25.2406 94.4123 25.3344C94.0992 25.4283 93.6607 25.4595 93.0813 25.4595C92.3922 25.4595 91.8598 25.4126 91.484 25.3188C91.1082 25.225 90.8576 25.0529 90.701 24.8027C90.5601 24.5525 90.4818 24.2397 90.4818 23.8644V23.4734H88.1798V23.536C88.1798 24.8496 88.5869 25.8349 89.4169 26.4604C90.2312 27.1016 91.4527 27.4144 93.05 27.4144C94.428 27.4144 95.5085 27.1329 96.2758 26.5699C97.0588 26.0069 97.4347 25.225 97.4347 24.2084C97.4347 23.6142 97.3094 23.0981 97.0588 22.6758C96.8083 22.2536 96.4481 21.9095 95.9626 21.6436C95.4929 21.3778 94.8978 21.1745 94.1931 21.0494L92.3453 20.7053C91.5623 20.5489 91.0455 20.3769 90.795 20.2049C90.5444 20.0328 90.4035 19.7513 90.4035 19.3447C90.4035 18.9068 90.5444 18.5784 90.8263 18.3595C91.1082 18.1405 91.6876 18.0311 92.5488 18.0311C93.2065 18.0311 93.692 18.1092 94.0209 18.25C94.3497 18.3907 94.5689 18.5941 94.6786 18.8599C94.8038 19.1101 94.8508 19.4229 94.8508 19.767V20.0328H97.1371V19.8139C97.1371 18.985 96.9335 18.2813 96.5264 17.7339C96.1192 17.1866 95.5868 16.7643 94.9291 16.4828C94.2557 16.2013 93.4884 16.0605 92.6115 16.0605C91.1865 16.0605 90.0903 16.3577 89.3073 16.9676C88.5243 17.5775 88.1328 18.3751 88.1328 19.3447C88.1328 19.9859 88.2581 20.5333 88.5243 20.9712C88.8218 21.4247 89.182 21.7531 89.6518 22.0033Z" fill="white"/>
    <path d="M73.9757 44.4138C74.7586 44.8986 75.7295 45.1332 76.8727 45.1332C77.8749 45.1332 78.7362 44.9455 79.4722 44.5702C80.2082 44.1949 80.7876 43.6788 81.1948 43.0063C81.6019 42.3338 81.8055 41.5832 81.8055 40.7387V40.5354H79.4565V40.6605C79.4565 41.4737 79.2373 42.0523 78.8145 42.412C78.3917 42.7717 77.7027 42.9594 76.7787 42.9594C75.7295 42.9594 74.9935 42.6623 74.5551 42.0836C74.1166 41.505 73.8817 40.6136 73.8817 39.425C73.8817 38.2364 74.1009 37.345 74.5551 36.7507C74.9935 36.1565 75.7452 35.8593 76.7787 35.8593C77.7183 35.8593 78.3917 36.047 78.8145 36.4223C79.2373 36.7977 79.4565 37.3919 79.4565 38.1895V38.3146H81.8055V38.1113C81.8055 37.2512 81.6019 36.4849 81.1948 35.8281C80.7876 35.1712 80.2239 34.6551 79.4879 34.2798C78.7519 33.9045 77.9062 33.7168 76.9353 33.7168C75.8078 33.7168 74.8369 33.9514 74.0226 34.4362C73.2083 34.9054 72.5819 35.5778 72.1591 36.438C71.7207 37.2981 71.5171 38.2834 71.5171 39.3937C71.5171 40.5041 71.7207 41.505 72.1435 42.3651C72.5819 43.2565 73.1927 43.9134 73.9757 44.4138Z" fill="white"/>
    <path d="M85.8304 44.3982C86.6447 44.8673 87.5999 45.1176 88.7274 45.1176C89.8549 45.1176 90.7945 44.883 91.5932 44.3982C92.3918 43.929 93.0025 43.2565 93.4566 42.3964C93.8951 41.5362 94.1144 40.551 94.1144 39.425C94.1144 38.299 93.8951 37.3137 93.4566 36.4536C93.0182 35.6091 92.3918 34.9366 91.5932 34.4674C90.7945 33.9983 89.8393 33.748 88.7274 33.748C87.6156 33.748 86.6447 33.9826 85.8304 34.4674C85.0161 34.9366 84.3897 35.6091 83.9356 36.4536C83.4814 37.2981 83.2622 38.299 83.2622 39.425C83.2622 40.551 83.4814 41.5362 83.9356 42.3964C84.3897 43.2565 85.0161 43.9134 85.8304 44.3982ZM86.3158 36.7194C86.77 36.1408 87.5686 35.8593 88.7274 35.8593C89.8862 35.8593 90.6849 36.1408 91.139 36.7194C91.5775 37.2981 91.8124 38.2051 91.8124 39.425C91.8124 40.6448 91.5931 41.5519 91.139 42.1305C90.6849 42.7092 89.8862 42.9907 88.7274 42.9907C87.5686 42.9907 86.77 42.6935 86.3158 42.1305C85.8617 41.5519 85.6425 40.6448 85.6425 39.425C85.6425 38.2051 85.8617 37.2981 86.3158 36.7194Z" fill="white"/>
    <path d="M103.698 38.5648V44.883H106.047V38.0331C106.047 37.2043 105.906 36.4536 105.608 35.8124C105.311 35.1712 104.872 34.6551 104.262 34.2954C103.667 33.9357 102.884 33.748 101.913 33.748C101.224 33.748 100.629 33.8575 100.128 34.0765C99.6265 34.2954 99.2037 34.5769 98.8905 34.9053C98.5616 35.2494 98.3267 35.6091 98.1701 36.0001H98.0605V33.967H95.8682V44.883H98.2484V38.5805C98.2484 37.8924 98.3581 37.345 98.5616 36.9384C98.7652 36.5318 99.0784 36.2503 99.5012 36.0782C99.924 35.9062 100.441 35.8124 101.067 35.8124C102.085 35.8124 102.774 36.0313 103.15 36.4536C103.51 36.8915 103.698 37.5952 103.698 38.5648Z" fill="white"/>
    <path d="M110.276 44.4138C111.059 44.8986 112.03 45.1332 113.173 45.1332C114.175 45.1332 115.036 44.9455 115.772 44.5702C116.508 44.1949 117.088 43.6788 117.495 43.0063C117.902 42.3338 118.106 41.5832 118.106 40.7387V40.5354H115.757V40.6605C115.757 41.4737 115.538 42.0523 115.115 42.412C114.692 42.7717 114.003 42.9594 113.079 42.9594C112.03 42.9594 111.294 42.6623 110.855 42.0836C110.417 41.505 110.182 40.6136 110.182 39.425C110.182 38.2364 110.401 37.345 110.855 36.7507C111.294 36.1565 112.045 35.8593 113.079 35.8593C114.019 35.8593 114.692 36.047 115.115 36.4223C115.538 36.7977 115.757 37.3919 115.757 38.1895V38.3146H118.106V38.1113C118.106 37.2512 117.902 36.4849 117.495 35.8281C117.088 35.1712 116.524 34.6551 115.788 34.2798C115.052 33.9045 114.207 33.7168 113.236 33.7168C112.108 33.7168 111.137 33.9514 110.323 34.4362C109.509 34.9054 108.882 35.5778 108.459 36.438C108.021 37.2981 107.817 38.2834 107.817 39.3937C107.817 40.5041 108.021 41.505 108.444 42.3651C108.882 43.2565 109.477 43.9134 110.276 44.4138Z" fill="white"/>
    <path d="M121.894 44.3825C122.677 44.8673 123.664 45.1019 124.854 45.1019C125.856 45.1019 126.717 44.9455 127.438 44.6328C128.158 44.32 128.738 43.8977 129.145 43.3504C129.552 42.803 129.755 42.1462 129.755 41.4111V41.2078H127.407V41.3799C127.407 41.8647 127.219 42.2556 126.827 42.5371C126.451 42.8343 125.794 42.975 124.87 42.975C124.087 42.975 123.46 42.8499 122.991 42.5997C122.521 42.3495 122.208 41.9741 122.035 41.4737C121.894 41.0514 121.8 40.551 121.785 39.9724H129.74C129.771 39.8003 129.787 39.5814 129.818 39.2999C129.834 39.034 129.849 38.7525 129.849 38.471C129.849 37.4545 129.63 36.61 129.207 35.9062C128.785 35.2025 128.19 34.6708 127.454 34.2954C126.718 33.9201 125.841 33.7324 124.854 33.7324C123.773 33.7324 122.834 33.967 122.035 34.4518C121.252 34.921 120.626 35.5935 120.203 36.438C119.765 37.2825 119.561 38.2834 119.561 39.4094C119.561 40.5354 119.749 41.5206 120.14 42.3808C120.532 43.2409 121.127 43.8977 121.894 44.3825ZM122.427 36.61C122.85 36.0313 123.648 35.7342 124.807 35.7342C125.449 35.7342 125.997 35.8437 126.436 36.047C126.874 36.2503 127.187 36.5631 127.391 36.9853C127.563 37.3607 127.641 37.8298 127.594 38.3928H121.832C121.894 37.6734 122.098 37.0792 122.427 36.61Z" fill="white"/>
    <path d="M141.141 43.5536C141.94 42.5215 142.331 41.1452 142.331 39.4406C142.331 37.736 141.924 36.3128 141.11 35.2963C140.295 34.2798 139.121 33.7637 137.586 33.7637C136.631 33.7637 135.848 33.9357 135.253 34.2954C134.642 34.6551 134.204 35.1555 133.953 35.7811H133.859V33.9826H131.683V48.6989H134.032V43.2096H134.094C134.345 43.6944 134.768 44.1323 135.363 44.5233C135.958 44.9142 136.756 45.1175 137.743 45.1175C139.199 45.1019 140.342 44.5858 141.141 43.5536ZM139.81 41.1296C139.7 41.5988 139.528 41.9741 139.278 42.2556C139.043 42.5371 138.729 42.7561 138.354 42.8812C137.978 43.0063 137.539 43.0845 137.023 43.0845C136.381 43.0845 135.832 42.9906 135.378 42.7873C134.924 42.584 134.58 42.2869 134.36 41.8959C134.141 41.5049 134.016 41.0045 134.016 40.4102V38.4397C134.016 37.8454 134.126 37.345 134.36 36.954C134.58 36.563 134.924 36.2659 135.378 36.0626C135.832 35.8593 136.381 35.7655 137.023 35.7655C137.539 35.7655 137.978 35.828 138.369 35.9688C138.745 36.0939 139.058 36.3128 139.293 36.61C139.528 36.9071 139.7 37.2824 139.81 37.736C139.92 38.2051 139.982 38.7681 139.982 39.4562C139.967 40.1287 139.92 40.6604 139.81 41.1296Z" fill="white"/>
    <path d="M147.325 31.2773H145.524L145.023 33.9829H143.175V35.9534H144.976V41.5365C144.976 42.772 145.289 43.6321 145.931 44.1325C146.573 44.633 147.482 44.8832 148.687 44.8832C149.063 44.8832 149.439 44.8676 149.784 44.8207C150.128 44.7737 150.426 44.7268 150.645 44.6955V42.7407H149.33C148.578 42.7407 148.061 42.6625 147.764 42.5061C147.466 42.3497 147.325 41.99 147.325 41.4114V35.9377H150.645V33.9672H147.325V31.2773Z" fill="white"/>
    <path d="M154.404 32.592V30.1836H152.039L152.055 32.592H154.404Z" fill="white"/>
    <path d="M154.436 33.9199H152.056V44.8985H154.436V33.9199Z" fill="white"/>
    <path d="M164.38 34.4674C163.581 33.9983 162.626 33.748 161.514 33.748C160.402 33.748 159.431 33.9826 158.617 34.4674C157.803 34.9366 157.176 35.6091 156.722 36.4536C156.268 37.2981 156.049 38.299 156.049 39.425C156.049 40.551 156.268 41.5362 156.722 42.3964C157.161 43.2565 157.803 43.9134 158.617 44.3982C159.431 44.883 160.387 45.1176 161.514 45.1176C162.642 45.1176 163.581 44.883 164.38 44.3982C165.178 43.929 165.805 43.2565 166.243 42.3964C166.682 41.5362 166.901 40.551 166.901 39.425C166.901 38.299 166.682 37.3137 166.243 36.4536C165.789 35.6091 165.178 34.9522 164.38 34.4674ZM163.91 42.1305C163.456 42.7092 162.657 42.9907 161.498 42.9907C160.34 42.9907 159.541 42.7092 159.087 42.1305C158.633 41.5519 158.413 40.6448 158.413 39.425C158.413 38.2051 158.633 37.2981 159.087 36.7194C159.541 36.1408 160.355 35.8593 161.498 35.8593C162.642 35.8593 163.456 36.1564 163.91 36.7194C164.348 37.2981 164.583 38.2051 164.583 39.425C164.583 40.6448 164.364 41.5519 163.91 42.1305Z" fill="white"/>
    <path d="M177.047 34.311C176.452 33.9513 175.669 33.7637 174.698 33.7637C174.009 33.7637 173.414 33.8731 172.913 34.0921C172.412 34.311 171.989 34.5925 171.676 34.921C171.347 35.2494 171.112 35.6247 170.956 36.0157H170.846V33.9826H168.669V44.8986H171.05V38.5961C171.05 37.908 171.159 37.3606 171.363 36.954C171.566 36.5474 171.88 36.2659 172.302 36.0939C172.725 35.9218 173.242 35.828 173.868 35.828C174.886 35.828 175.575 36.047 175.951 36.4692C176.327 36.8915 176.515 37.5952 176.515 38.5805V44.8986H178.864V38.0487C178.864 37.2199 178.723 36.4692 178.425 35.828C178.097 35.1868 177.658 34.6707 177.047 34.311Z" fill="white"/>
    <path d="M189.654 40.3633C189.403 39.9411 189.043 39.597 188.573 39.3311C188.103 39.0653 187.508 38.862 186.803 38.7369L184.956 38.3928C184.173 38.2364 183.656 38.0644 183.405 37.8924C183.155 37.7203 183.014 37.4388 183.014 37.0322C183.014 36.5943 183.155 36.2659 183.437 36.047C183.719 35.828 184.298 35.7185 185.159 35.7185C185.817 35.7185 186.302 35.7967 186.631 35.9375C186.96 36.0782 187.179 36.2815 187.289 36.5474C187.399 36.8133 187.461 37.1104 187.461 37.4545V37.7203H189.747V37.517C189.747 36.6882 189.544 35.9844 189.137 35.437C188.73 34.8897 188.197 34.4674 187.539 34.1859C186.866 33.9044 186.099 33.7637 185.222 33.7637C183.797 33.7637 182.701 34.0608 181.918 34.6707C181.135 35.2806 180.743 36.0782 180.743 37.0478C180.743 37.689 180.868 38.2364 181.135 38.6743C181.401 39.1122 181.761 39.4562 182.231 39.6908C182.701 39.9254 183.264 40.1131 183.922 40.2226L185.629 40.551C186.443 40.6917 186.991 40.8481 187.289 41.0201C187.586 41.1922 187.743 41.5049 187.743 41.9585C187.743 42.24 187.696 42.4589 187.586 42.6309C187.477 42.803 187.289 42.9281 186.976 43.0219C186.663 43.1158 186.224 43.147 185.645 43.147C184.956 43.147 184.423 43.1001 184.047 43.0063C183.672 42.9124 183.405 42.7404 183.264 42.4902C183.123 42.24 183.045 41.9272 183.045 41.5519V41.1609H180.743V41.2234C180.743 42.5371 181.15 43.5224 181.98 44.1479C182.795 44.7891 184.016 45.1019 185.613 45.1019C186.991 45.1019 188.072 44.8204 188.839 44.2574C189.622 43.6944 189.998 42.9124 189.998 41.8959C190.014 41.3016 189.888 40.7856 189.654 40.3633Z" fill="white"/>
    <path d="M79.8646 55.8935H79.802C79.5671 55.3931 79.16 54.9552 78.5649 54.5642C77.9698 54.1733 77.1868 53.9856 76.2159 53.9856C74.7126 53.9856 73.5538 54.5017 72.7395 55.5182C71.9252 56.5347 71.5337 57.911 71.5337 59.6469C71.5337 61.3828 71.9408 62.759 72.7708 63.7912C73.6008 64.8234 74.7909 65.3394 76.3412 65.3394C77.2808 65.3394 78.0481 65.1518 78.6588 64.8077C79.2696 64.448 79.6924 63.9476 79.9429 63.3064H80.0526V65.1361H82.2136V50.4355H79.8646V55.8935ZM79.8646 60.6321C79.8646 61.2264 79.7394 61.7269 79.5201 62.1335C79.2852 62.5401 78.9407 62.8372 78.5022 63.0249C78.0638 63.2126 77.5157 63.3064 76.8736 63.3064C76.3569 63.3064 75.9184 63.2438 75.5269 63.1031C75.1511 62.978 74.8379 62.759 74.5873 62.4775C74.3524 62.196 74.1645 61.8207 74.0549 61.3515C73.9453 60.8824 73.8983 60.3194 73.8983 59.6312C73.8983 58.9431 73.9453 58.3801 74.0549 57.911C74.1645 57.4418 74.3368 57.0665 74.5873 56.785C74.8222 56.5035 75.1354 56.3001 75.5269 56.175C75.9027 56.0499 76.3569 55.9717 76.8736 55.9717C77.5157 55.9717 78.0638 56.0656 78.5022 56.2532C78.9407 56.4409 79.2852 56.738 79.5201 57.129C79.755 57.52 79.8646 58.0361 79.8646 58.646V60.6321Z" fill="white"/>
    <path d="M92.3919 60.3512C92.3919 61.0549 92.2823 61.6179 92.0474 62.0558C91.8125 62.4937 91.4993 62.8065 91.0765 62.9942C90.6536 63.1975 90.1369 63.2913 89.5418 63.2913C88.5866 63.2913 87.9132 63.0724 87.5061 62.6501C87.0989 62.2122 86.8953 61.5085 86.8953 60.5076V54.2051H84.5464V60.9455C84.5464 61.7587 84.6873 62.5094 84.9692 63.1662C85.2511 63.8387 85.7052 64.3548 86.3159 64.7457C86.9267 65.1367 87.7096 65.3244 88.6492 65.3244C89.3696 65.3244 89.9803 65.2149 90.4814 64.9803C90.9825 64.7614 91.4053 64.4642 91.7342 64.0889C92.063 63.7292 92.3136 63.3382 92.4702 62.9316H92.5641V65.1054H94.7565V54.1895H92.4075L92.3919 60.3512Z" fill="white"/>
    <path d="M110.463 51.2957C109.351 50.7014 108.035 50.4043 106.501 50.4043H101.286V65.1049H106.501C108.02 65.1049 109.351 64.8078 110.463 64.1978C111.575 63.6036 112.436 62.7434 113.047 61.6487C113.657 60.554 113.955 59.2559 113.955 57.739C113.955 56.222 113.657 54.9083 113.047 53.8136C112.436 52.7345 111.575 51.89 110.463 51.2957ZM110.932 60.8042C110.604 61.5705 110.071 62.1335 109.351 62.4619C108.631 62.806 107.675 62.9624 106.501 62.9624H103.651V52.5312H106.516C107.691 52.5312 108.631 52.7032 109.367 53.0316C110.087 53.3757 110.619 53.9231 110.948 54.6894C111.277 55.4557 111.449 56.4722 111.449 57.7546C111.449 59.037 111.261 60.0379 110.932 60.8042Z" fill="white"/>
    <path d="M123.023 54.5493C122.35 54.174 121.489 53.9707 120.486 53.9707C119.484 53.9707 118.67 54.1584 117.95 54.5024C117.229 54.8465 116.665 55.3626 116.258 55.9881C115.851 56.6293 115.648 57.3487 115.648 58.1463V58.3652H117.934V58.0368C117.934 57.3018 118.122 56.7857 118.498 56.4886C118.873 56.1914 119.484 56.035 120.361 56.035C121.238 56.035 121.849 56.1758 122.24 56.4729C122.632 56.7701 122.82 57.3174 122.82 58.1463V58.7406L118.999 59.2879C118.231 59.4131 117.589 59.5851 117.026 59.8509C116.462 60.1168 116.055 60.4452 115.789 60.8675C115.507 61.2897 115.366 61.7902 115.366 62.4001C115.366 63.3541 115.695 64.0735 116.352 64.5739C117.01 65.0743 117.84 65.3246 118.842 65.3246C119.516 65.3246 120.111 65.2307 120.627 65.0431C121.144 64.8554 121.583 64.6208 121.943 64.3237C122.303 64.0265 122.6 63.7138 122.804 63.3853H122.898V65.09H125.09V58.4591C125.09 57.552 124.918 56.7701 124.574 56.0976C124.229 55.4564 123.712 54.9403 123.023 54.5493ZM122.82 60.6329C122.82 61.3679 122.663 61.9309 122.35 62.3375C122.037 62.7441 121.63 63.0413 121.128 63.1977C120.627 63.3697 120.111 63.4479 119.594 63.4479C118.905 63.4479 118.404 63.3541 118.106 63.1508C117.809 62.9474 117.652 62.6503 117.652 62.2124C117.652 61.7745 117.777 61.5087 118.028 61.3366C118.278 61.1646 118.717 61.0239 119.343 60.9144L122.82 60.4452V60.6329Z" fill="white"/>
    <path d="M135.785 54.5486C135.19 54.1733 134.423 53.9856 133.468 53.9856C132.81 53.9856 132.231 54.0794 131.761 54.2828C131.291 54.4861 130.884 54.7363 130.555 55.0491C130.242 55.3618 129.991 55.6903 129.819 56.0187H129.725V50.4043H127.345V65.1049H129.725V58.8337C129.725 57.8015 129.96 57.0665 130.414 56.6599C130.868 56.2533 131.588 56.05 132.544 56.05C133.499 56.05 134.235 56.2689 134.611 56.6911C134.987 57.1134 135.19 57.8172 135.19 58.8024V65.1205H137.539V58.255C137.539 57.4418 137.398 56.7224 137.116 56.0812C136.834 55.44 136.38 54.9083 135.785 54.5486Z" fill="white"/>
    <path d="M147.685 60.3512C147.685 61.0549 147.576 61.6179 147.341 62.0558C147.122 62.4937 146.793 62.8065 146.37 62.9942C145.947 63.1975 145.43 63.2913 144.835 63.2913C143.88 63.2913 143.207 63.0724 142.784 62.6501C142.377 62.2122 142.173 61.5085 142.173 60.5076V54.2051H139.824V60.9455C139.824 61.7587 139.965 62.5094 140.247 63.1662C140.529 63.8387 140.983 64.3548 141.594 64.7457C142.204 65.1367 142.987 65.3244 143.927 65.3244C144.647 65.3244 145.258 65.2149 145.759 64.9803C146.26 64.7614 146.683 64.4642 147.012 64.0889C147.341 63.7292 147.591 63.3382 147.748 62.9316H147.842V65.1054H150.034V54.1895H147.685V60.3512Z" fill="white"/>
    <path d="M155.437 51.498H153.637L153.135 54.2036H151.288V56.1741H153.088V61.7572C153.088 62.9927 153.402 63.8528 154.044 64.3533C154.686 64.8537 155.594 65.1039 156.8 65.1039C157.176 65.1039 157.551 65.0883 157.896 65.0414C158.24 64.9944 158.538 64.9475 158.757 64.9163V62.9614H157.442C156.69 62.9614 156.173 62.8832 155.876 62.7268C155.578 62.5704 155.437 62.2107 155.437 61.6321V56.1585H158.757V54.1879H155.437V51.498Z" fill="white"/>
</svg>